<svg width="20" height="20" viewBox="0 0 20 20" fill="none" xmlns="http://www.w3.org/2000/svg">
<mask id="mask0_1535_2227" style="mask-type:alpha" maskUnits="userSpaceOnUse" x="0" y="0" width="20" height="20">
<rect width="20" height="20" fill="#D9D9D9"/>
</mask>
<g mask="url(#mask0_1535_2227)">
<path d="M4.87484 14.25C5.58317 13.7084 6.37484 13.2813 7.24984 12.9688C8.12484 12.6563 9.0415 12.5 9.99984 12.5C10.9582 12.5 11.8748 12.6563 12.7498 12.9688C13.6248 13.2813 14.4165 13.7084 15.1248 14.25C15.6109 13.6806 15.9894 13.0347 16.2603 12.3125C16.5311 11.5903 16.6665 10.8195 16.6665 10C16.6665 8.1528 16.0172 6.57988 14.7186 5.28127C13.42 3.98266 11.8471 3.33335 9.99984 3.33335C8.15261 3.33335 6.5797 3.98266 5.28109 5.28127C3.98248 6.57988 3.33317 8.1528 3.33317 10C3.33317 10.8195 3.46859 11.5903 3.73942 12.3125C4.01025 13.0347 4.38873 13.6806 4.87484 14.25ZM9.99984 10.8334C9.18039 10.8334 8.48942 10.5521 7.92692 9.9896C7.36442 9.4271 7.08317 8.73613 7.08317 7.91669C7.08317 7.09724 7.36442 6.40627 7.92692 5.84377C8.48942 5.28127 9.18039 5.00002 9.99984 5.00002C10.8193 5.00002 11.5103 5.28127 12.0728 5.84377C12.6353 6.40627 12.9165 7.09724 12.9165 7.91669C12.9165 8.73613 12.6353 9.4271 12.0728 9.9896C11.5103 10.5521 10.8193 10.8334 9.99984 10.8334ZM9.99984 18.3334C8.84706 18.3334 7.76373 18.1146 6.74984 17.6771C5.73595 17.2396 4.854 16.6459 4.104 15.8959C3.354 15.1459 2.76025 14.2639 2.32275 13.25C1.88525 12.2361 1.6665 11.1528 1.6665 10C1.6665 8.84724 1.88525 7.76391 2.32275 6.75002C2.76025 5.73613 3.354 4.85419 4.104 4.10419C4.854 3.35419 5.73595 2.76044 6.74984 2.32294C7.76373 1.88544 8.84706 1.66669 9.99984 1.66669C11.1526 1.66669 12.2359 1.88544 13.2498 2.32294C14.2637 2.76044 15.1457 3.35419 15.8957 4.10419C16.6457 4.85419 17.2394 5.73613 17.6769 6.75002C18.1144 7.76391 18.3332 8.84724 18.3332 10C18.3332 11.1528 18.1144 12.2361 17.6769 13.25C17.2394 14.2639 16.6457 15.1459 15.8957 15.8959C15.1457 16.6459 14.2637 17.2396 13.2498 17.6771C12.2359 18.1146 11.1526 18.3334 9.99984 18.3334ZM9.99984 16.6667C10.7359 16.6667 11.4304 16.559 12.0832 16.3438C12.7359 16.1285 13.3332 15.8195 13.8748 15.4167C13.3332 15.0139 12.7359 14.7049 12.0832 14.4896C11.4304 14.2743 10.7359 14.1667 9.99984 14.1667C9.26373 14.1667 8.56928 14.2743 7.9165 14.4896C7.26373 14.7049 6.6665 15.0139 6.12484 15.4167C6.6665 15.8195 7.26373 16.1285 7.9165 16.3438C8.56928 16.559 9.26373 16.6667 9.99984 16.6667ZM9.99984 9.16669C10.3609 9.16669 10.6596 9.04863 10.8957 8.81252C11.1318 8.57641 11.2498 8.2778 11.2498 7.91669C11.2498 7.55558 11.1318 7.25696 10.8957 7.02085C10.6596 6.78474 10.3609 6.66669 9.99984 6.66669C9.63873 6.66669 9.34011 6.78474 9.104 7.02085C8.86789 7.25696 8.74984 7.55558 8.74984 7.91669C8.74984 8.2778 8.86789 8.57641 9.104 8.81252C9.34011 9.04863 9.63873 9.16669 9.99984 9.16669Z" fill="#333333"/>
</g>
</svg>
