<svg width="20" height="20" viewBox="0 0 20 20" fill="none" xmlns="http://www.w3.org/2000/svg">
<mask id="mask0_970_2657" style="mask-type:alpha" maskUnits="userSpaceOnUse" x="0" y="0" width="20" height="20">
<rect width="20" height="20" fill="#D9D9D9"/>
</mask>
<g mask="url(#mask0_970_2657)">
<path d="M4.5 5H15.5L14.7917 4.16667H5.20833L4.5 5ZM8.33333 10.625L10 9.79167L11.6667 10.625V6.66667H8.33333V10.625ZM4.16667 17.5C3.70833 17.5 3.31597 17.3368 2.98958 17.0104C2.66319 16.684 2.5 16.2917 2.5 15.8333V5.4375C2.5 5.24306 2.53125 5.05556 2.59375 4.875C2.65625 4.69444 2.75 4.52778 2.875 4.375L3.91667 3.10417C4.06944 2.90972 4.26042 2.76042 4.48958 2.65625C4.71875 2.55208 4.95833 2.5 5.20833 2.5H14.7917C15.0417 2.5 15.2812 2.55208 15.5104 2.65625C15.7396 2.76042 15.9306 2.90972 16.0833 3.10417L17.125 4.375C17.25 4.52778 17.3438 4.69444 17.4063 4.875C17.4688 5.05556 17.5 5.24306 17.5 5.4375V8.33333C17.2083 8.33333 16.9201 8.35417 16.6354 8.39583C16.3507 8.4375 16.0833 8.52083 15.8333 8.64583V6.66667H13.3333V10.9375L11.7292 12.5417L10 11.6667L6.66667 13.3333V6.66667H4.16667V15.8333H10V17.5H4.16667ZM11.6667 17.5V14.9375L16.2708 10.3542C16.3958 10.2292 16.5347 10.1389 16.6875 10.0833C16.8403 10.0278 16.9931 10 17.1458 10C17.3125 10 17.4722 10.0312 17.625 10.0937C17.7778 10.1562 17.9167 10.25 18.0417 10.375L18.8125 11.1458C18.9236 11.2708 19.0104 11.4097 19.0729 11.5625C19.1354 11.7153 19.1667 11.8681 19.1667 12.0208C19.1667 12.1736 19.1389 12.3299 19.0833 12.4896C19.0278 12.6493 18.9375 12.7917 18.8125 12.9167L14.2292 17.5H11.6667ZM12.9167 16.25H13.7083L16.2292 13.7083L15.8542 13.3125L15.4583 12.9375L12.9167 15.4583V16.25ZM15.8542 13.3125L15.4583 12.9375L16.2292 13.7083L15.8542 13.3125Z" fill="#333333"/>
</g>
</svg>
