<svg width="16" height="16" viewBox="0 0 16 16" fill="none" xmlns="http://www.w3.org/2000/svg">
<mask id="mask0_260_37" style="mask-type:alpha" maskUnits="userSpaceOnUse" x="0" y="0" width="16" height="16">
<rect width="16" height="16" fill="#1C74E9"/>
</mask>
<g mask="url(#mask0_260_37)">
<path d="M3.33333 14.6672C2.96667 14.6672 2.65278 14.5366 2.39167 14.2755C2.13056 14.0144 2 13.7005 2 13.3339V4.00053C2 3.63386 2.13056 3.31997 2.39167 3.05886C2.65278 2.79775 2.96667 2.6672 3.33333 2.6672H4V1.33386H5.33333V2.6672H10.6667V1.33386H12V2.6672H12.6667C13.0333 2.6672 13.3472 2.79775 13.6083 3.05886C13.8694 3.31997 14 3.63386 14 4.00053V13.3339C14 13.7005 13.8694 14.0144 13.6083 14.2755C13.3472 14.5366 13.0333 14.6672 12.6667 14.6672H3.33333ZM3.33333 13.3339H12.6667V6.6672H3.33333V13.3339ZM3.33333 5.33386H12.6667V4.00053H3.33333V5.33386ZM8 9.33386C7.81111 9.33386 7.65278 9.26997 7.525 9.1422C7.39722 9.01442 7.33333 8.85608 7.33333 8.6672C7.33333 8.47831 7.39722 8.31997 7.525 8.1922C7.65278 8.06442 7.81111 8.00053 8 8.00053C8.18889 8.00053 8.34722 8.06442 8.475 8.1922C8.60278 8.31997 8.66667 8.47831 8.66667 8.6672C8.66667 8.85608 8.60278 9.01442 8.475 9.1422C8.34722 9.26997 8.18889 9.33386 8 9.33386ZM5.33333 9.33386C5.14444 9.33386 4.98611 9.26997 4.85833 9.1422C4.73056 9.01442 4.66667 8.85608 4.66667 8.6672C4.66667 8.47831 4.73056 8.31997 4.85833 8.1922C4.98611 8.06442 5.14444 8.00053 5.33333 8.00053C5.52222 8.00053 5.68056 8.06442 5.80833 8.1922C5.93611 8.31997 6 8.47831 6 8.6672C6 8.85608 5.93611 9.01442 5.80833 9.1422C5.68056 9.26997 5.52222 9.33386 5.33333 9.33386ZM10.6667 9.33386C10.4778 9.33386 10.3194 9.26997 10.1917 9.1422C10.0639 9.01442 10 8.85608 10 8.6672C10 8.47831 10.0639 8.31997 10.1917 8.1922C10.3194 8.06442 10.4778 8.00053 10.6667 8.00053C10.8556 8.00053 11.0139 8.06442 11.1417 8.1922C11.2694 8.31997 11.3333 8.47831 11.3333 8.6672C11.3333 8.85608 11.2694 9.01442 11.1417 9.1422C11.0139 9.26997 10.8556 9.33386 10.6667 9.33386ZM8 12.0005C7.81111 12.0005 7.65278 11.9366 7.525 11.8089C7.39722 11.6811 7.33333 11.5228 7.33333 11.3339C7.33333 11.145 7.39722 10.9866 7.525 10.8589C7.65278 10.7311 7.81111 10.6672 8 10.6672C8.18889 10.6672 8.34722 10.7311 8.475 10.8589C8.60278 10.9866 8.66667 11.145 8.66667 11.3339C8.66667 11.5228 8.60278 11.6811 8.475 11.8089C8.34722 11.9366 8.18889 12.0005 8 12.0005ZM5.33333 12.0005C5.14444 12.0005 4.98611 11.9366 4.85833 11.8089C4.73056 11.6811 4.66667 11.5228 4.66667 11.3339C4.66667 11.145 4.73056 10.9866 4.85833 10.8589C4.98611 10.7311 5.14444 10.6672 5.33333 10.6672C5.52222 10.6672 5.68056 10.7311 5.80833 10.8589C5.93611 10.9866 6 11.145 6 11.3339C6 11.5228 5.93611 11.6811 5.80833 11.8089C5.68056 11.9366 5.52222 12.0005 5.33333 12.0005ZM10.6667 12.0005C10.4778 12.0005 10.3194 11.9366 10.1917 11.8089C10.0639 11.6811 10 11.5228 10 11.3339C10 11.145 10.0639 10.9866 10.1917 10.8589C10.3194 10.7311 10.4778 10.6672 10.6667 10.6672C10.8556 10.6672 11.0139 10.7311 11.1417 10.8589C11.2694 10.9866 11.3333 11.145 11.3333 11.3339C11.3333 11.5228 11.2694 11.6811 11.1417 11.8089C11.0139 11.9366 10.8556 12.0005 10.6667 12.0005Z" fill="#666666"/>
</g>
</svg>
