<svg width="17" height="16" viewBox="0 0 17 16" fill="none" xmlns="http://www.w3.org/2000/svg">
<mask id="mask0_1175_5039" style="mask-type:alpha" maskUnits="userSpaceOnUse" x="0" y="0" width="17" height="16">
<rect x="0.333008" width="16" height="16" fill="#D9D9D9"/>
</mask>
<g mask="url(#mask0_1175_5039)">
<path d="M7.39935 9.19992L5.96602 7.76659C5.84379 7.64436 5.68824 7.58325 5.49935 7.58325C5.31046 7.58325 5.1549 7.64436 5.03268 7.76659C4.91046 7.88881 4.84935 8.04436 4.84935 8.23325C4.84935 8.42214 4.91046 8.5777 5.03268 8.69992L6.93268 10.5999C7.06602 10.7333 7.22157 10.7999 7.39935 10.7999C7.57713 10.7999 7.73268 10.7333 7.86602 10.5999L11.6327 6.83325C11.7549 6.71103 11.816 6.55547 11.816 6.36659C11.816 6.1777 11.7549 6.02214 11.6327 5.89992C11.5105 5.7777 11.3549 5.71659 11.166 5.71659C10.9771 5.71659 10.8216 5.7777 10.6993 5.89992L7.39935 9.19992ZM8.33268 14.6666C7.41046 14.6666 6.54379 14.4916 5.73268 14.1416C4.92157 13.7916 4.21602 13.3166 3.61602 12.7166C3.01602 12.1166 2.54102 11.411 2.19102 10.5999C1.84102 9.78881 1.66602 8.92214 1.66602 7.99992C1.66602 7.0777 1.84102 6.21103 2.19102 5.39992C2.54102 4.58881 3.01602 3.88325 3.61602 3.28325C4.21602 2.68325 4.92157 2.20825 5.73268 1.85825C6.54379 1.50825 7.41046 1.33325 8.33268 1.33325C9.2549 1.33325 10.1216 1.50825 10.9327 1.85825C11.7438 2.20825 12.4493 2.68325 13.0493 3.28325C13.6493 3.88325 14.1243 4.58881 14.4743 5.39992C14.8243 6.21103 14.9993 7.0777 14.9993 7.99992C14.9993 8.92214 14.8243 9.78881 14.4743 10.5999C14.1243 11.411 13.6493 12.1166 13.0493 12.7166C12.4493 13.3166 11.7438 13.7916 10.9327 14.1416C10.1216 14.4916 9.2549 14.6666 8.33268 14.6666ZM8.33268 13.3333C9.82157 13.3333 11.0827 12.8166 12.116 11.7833C13.1493 10.7499 13.666 9.48881 13.666 7.99992C13.666 6.51103 13.1493 5.24992 12.116 4.21659C11.0827 3.18325 9.82157 2.66659 8.33268 2.66659C6.84379 2.66659 5.58268 3.18325 4.54935 4.21659C3.51602 5.24992 2.99935 6.51103 2.99935 7.99992C2.99935 9.48881 3.51602 10.7499 4.54935 11.7833C5.58268 12.8166 6.84379 13.3333 8.33268 13.3333Z" fill="#333333"/>
</g>
</svg>
