<svg width="16" height="16" viewBox="0 0 16 16" fill="none" xmlns="http://www.w3.org/2000/svg">
<mask id="mask0_229_130" style="mask-type:alpha" maskUnits="userSpaceOnUse" x="0" y="0" width="16" height="16">
<rect width="16" height="16" fill="#D9D9D9"/>
</mask>
<g mask="url(#mask0_229_130)">
<path d="M1.3335 14V2H8.00016V4.66667H14.6668V14H1.3335ZM2.66683 12.6667H4.00016V11.3333H2.66683V12.6667ZM2.66683 10H4.00016V8.66667H2.66683V10ZM2.66683 7.33333H4.00016V6H2.66683V7.33333ZM2.66683 4.66667H4.00016V3.33333H2.66683V4.66667ZM5.3335 12.6667H6.66683V11.3333H5.3335V12.6667ZM5.3335 10H6.66683V8.66667H5.3335V10ZM5.3335 7.33333H6.66683V6H5.3335V7.33333ZM5.3335 4.66667H6.66683V3.33333H5.3335V4.66667ZM8.00016 12.6667H13.3335V6H8.00016V7.33333H9.3335V8.66667H8.00016V10H9.3335V11.3333H8.00016V12.6667ZM10.6668 8.66667V7.33333H12.0002V8.66667H10.6668ZM10.6668 11.3333V10H12.0002V11.3333H10.6668Z" fill="#666666"/>
</g>
</svg>
