<svg width="17" height="17" viewBox="0 0 17 17" fill="none" xmlns="http://www.w3.org/2000/svg">
<mask id="mask0_566_1012" style="mask-type:alpha" maskUnits="userSpaceOnUse" x="0" y="0" width="17" height="17">
<rect x="0.5" y="0.5" width="16" height="16" fill="#D9D9D9"/>
</mask>
<g mask="url(#mask0_566_1012)">
<path d="M11.8332 11.9667L11.2332 11.3667C11.1109 11.2445 10.9554 11.1834 10.7665 11.1834C10.5776 11.1834 10.4221 11.2445 10.2998 11.3667C10.1776 11.4889 10.1165 11.6445 10.1165 11.8334C10.1165 12.0223 10.1776 12.1778 10.2998 12.3L12.0332 14.0334C12.1665 14.1667 12.3221 14.2334 12.4998 14.2334C12.6776 14.2334 12.8332 14.1667 12.9665 14.0334L14.6998 12.3C14.8221 12.1778 14.8832 12.0223 14.8832 11.8334C14.8832 11.6445 14.8221 11.4889 14.6998 11.3667C14.5776 11.2445 14.4221 11.1834 14.2332 11.1834C14.0443 11.1834 13.8887 11.2445 13.7665 11.3667L13.1665 11.9667V9.85004C13.1665 9.66115 13.1026 9.50282 12.9748 9.37504C12.8471 9.24726 12.6887 9.18337 12.4998 9.18337C12.3109 9.18337 12.1526 9.24726 12.0248 9.37504C11.8971 9.50282 11.8332 9.66115 11.8332 9.85004V11.9667ZM10.4998 15.1667H14.4998C14.6887 15.1667 14.8471 15.2306 14.9748 15.3584C15.1026 15.4862 15.1665 15.6445 15.1665 15.8334C15.1665 16.0223 15.1026 16.1806 14.9748 16.3084C14.8471 16.4362 14.6887 16.5 14.4998 16.5H10.4998C10.3109 16.5 10.1526 16.4362 10.0248 16.3084C9.89706 16.1806 9.83317 16.0223 9.83317 15.8334C9.83317 15.6445 9.89706 15.4862 10.0248 15.3584C10.1526 15.2306 10.3109 15.1667 10.4998 15.1667ZM4.49984 13.8334C4.13317 13.8334 3.81928 13.7028 3.55817 13.4417C3.29706 13.1806 3.1665 12.8667 3.1665 12.5V3.16671C3.1665 2.80004 3.29706 2.48615 3.55817 2.22504C3.81928 1.96393 4.13317 1.83337 4.49984 1.83337H8.6165C8.79428 1.83337 8.96373 1.86671 9.12484 1.93337C9.28595 2.00004 9.42762 2.09449 9.54984 2.21671L12.7832 5.45004C12.9054 5.57226 12.9998 5.71393 13.0665 5.87504C13.1332 6.03615 13.1665 6.2056 13.1665 6.38337V7.18337C13.1665 7.37226 13.1026 7.5306 12.9748 7.65837C12.8471 7.78615 12.6887 7.85004 12.4998 7.85004C12.3109 7.85004 12.1526 7.78615 12.0248 7.65837C11.8971 7.5306 11.8332 7.37226 11.8332 7.18337V6.50004H9.49984C9.22206 6.50004 8.98595 6.40282 8.7915 6.20837C8.59706 6.01393 8.49984 5.77782 8.49984 5.50004V3.16671H4.49984V12.5H7.83317C8.02206 12.5 8.18039 12.5639 8.30817 12.6917C8.43595 12.8195 8.49984 12.9778 8.49984 13.1667C8.49984 13.3556 8.43595 13.5139 8.30817 13.6417C8.18039 13.7695 8.02206 13.8334 7.83317 13.8334H4.49984Z" fill="white"/>
</g>
</svg>
