<svg width="16" height="17" viewBox="0 0 16 17" fill="none" xmlns="http://www.w3.org/2000/svg">
<mask id="mask0_1415_2152" style="mask-type:alpha" maskUnits="userSpaceOnUse" x="0" y="0" width="16" height="17">
<rect y="0.5" width="16" height="16" fill="#D9D9D9"/>
</mask>
<g mask="url(#mask0_1415_2152)">
<path d="M4.66634 9.83333C4.85523 9.83333 5.01356 9.76945 5.14134 9.64167C5.26912 9.51389 5.33301 9.35556 5.33301 9.16667C5.33301 8.97778 5.26912 8.81944 5.14134 8.69167C5.01356 8.56389 4.85523 8.5 4.66634 8.5C4.47745 8.5 4.31912 8.56389 4.19134 8.69167C4.06356 8.81944 3.99967 8.97778 3.99967 9.16667C3.99967 9.35556 4.06356 9.51389 4.19134 9.64167C4.31912 9.76945 4.47745 9.83333 4.66634 9.83333ZM4.66634 7.16667C4.85523 7.16667 5.01356 7.10278 5.14134 6.975C5.26912 6.84722 5.33301 6.68889 5.33301 6.5C5.33301 6.31111 5.26912 6.15278 5.14134 6.025C5.01356 5.89722 4.85523 5.83333 4.66634 5.83333C4.47745 5.83333 4.31912 5.89722 4.19134 6.025C4.06356 6.15278 3.99967 6.31111 3.99967 6.5C3.99967 6.68889 4.06356 6.84722 4.19134 6.975C4.31912 7.10278 4.47745 7.16667 4.66634 7.16667ZM6.66634 9.83333H11.333C11.5219 9.83333 11.6802 9.76945 11.808 9.64167C11.9358 9.51389 11.9997 9.35556 11.9997 9.16667C11.9997 8.97778 11.9358 8.81944 11.808 8.69167C11.6802 8.56389 11.5219 8.5 11.333 8.5H6.66634C6.47745 8.5 6.31912 8.56389 6.19134 8.69167C6.06356 8.81944 5.99967 8.97778 5.99967 9.16667C5.99967 9.35556 6.06356 9.51389 6.19134 9.64167C6.31912 9.76945 6.47745 9.83333 6.66634 9.83333ZM6.66634 7.16667H11.333C11.5219 7.16667 11.6802 7.10278 11.808 6.975C11.9358 6.84722 11.9997 6.68889 11.9997 6.5C11.9997 6.31111 11.9358 6.15278 11.808 6.025C11.6802 5.89722 11.5219 5.83333 11.333 5.83333H6.66634C6.47745 5.83333 6.31912 5.89722 6.19134 6.025C6.06356 6.15278 5.99967 6.31111 5.99967 6.5C5.99967 6.68889 6.06356 6.84722 6.19134 6.975C6.31912 7.10278 6.47745 7.16667 6.66634 7.16667ZM2.66634 13.1667C2.29967 13.1667 1.98579 13.0361 1.72467 12.775C1.46356 12.5139 1.33301 12.2 1.33301 11.8333V3.83333C1.33301 3.46667 1.46356 3.15278 1.72467 2.89167C1.98579 2.63056 2.29967 2.5 2.66634 2.5H13.333C13.6997 2.5 14.0136 2.63056 14.2747 2.89167C14.5358 3.15278 14.6663 3.46667 14.6663 3.83333V11.8333C14.6663 12.2 14.5358 12.5139 14.2747 12.775C14.0136 13.0361 13.6997 13.1667 13.333 13.1667H10.6663V13.8333C10.6663 14.0222 10.6025 14.1806 10.4747 14.3083C10.3469 14.4361 10.1886 14.5 9.99967 14.5H5.99967C5.81079 14.5 5.65245 14.4361 5.52467 14.3083C5.3969 14.1806 5.33301 14.0222 5.33301 13.8333V13.1667H2.66634ZM2.66634 11.8333H13.333V3.83333H2.66634V11.8333Z" fill="white"/>
</g>
</svg>
