<svg width="20" height="20" viewBox="0 0 20 20" fill="none" xmlns="http://www.w3.org/2000/svg">
<mask id="mask0_1343_1313" style="mask-type:alpha" maskUnits="userSpaceOnUse" x="0" y="0" width="20" height="20">
<rect width="20" height="20" fill="#D9D9D9"/>
</mask>
<g mask="url(#mask0_1343_1313)">
<path d="M5 18.3334C4.54167 18.3334 4.14931 18.1702 3.82292 17.8438C3.49653 17.5174 3.33333 17.125 3.33333 16.6667V15H2.5V13.3334H3.33333V10.8334H2.5V9.16669H3.33333V6.66669H2.5V5.00002H3.33333V3.33335C3.33333 2.87502 3.49653 2.48266 3.82292 2.15627C4.14931 1.82988 4.54167 1.66669 5 1.66669H15C15.4583 1.66669 15.8507 1.82988 16.1771 2.15627C16.5035 2.48266 16.6667 2.87502 16.6667 3.33335V16.6667C16.6667 17.125 16.5035 17.5174 16.1771 17.8438C15.8507 18.1702 15.4583 18.3334 15 18.3334H5ZM5 16.6667H15V3.33335H5V5.00002H5.83333V6.66669H5V9.16669H5.83333V10.8334H5V13.3334H5.83333V15H5V16.6667ZM7.91667 14.1667H9.16667V10.8334C9.52778 10.7361 9.82639 10.5382 10.0625 10.2396C10.2986 9.94099 10.4167 9.60419 10.4167 9.22919V5.83335H9.58333V8.97919H8.95833V5.83335H8.125V8.97919H7.5V5.83335H6.66667V9.22919C6.66667 9.60419 6.78472 9.94099 7.02083 10.2396C7.25694 10.5382 7.55556 10.7361 7.91667 10.8334V14.1667ZM12.5 14.1667H13.75V5.83335C13.0556 5.83335 12.4653 6.07641 11.9792 6.56252C11.4931 7.04863 11.25 7.63891 11.25 8.33335V10.8334H12.5V14.1667Z" fill="#333333"/>
</g>
</svg>
