<svg width="14" height="14" viewBox="0 0 14 14" fill="none" xmlns="http://www.w3.org/2000/svg">
<mask id="mask0_376_1962" style="mask-type:alpha" maskUnits="userSpaceOnUse" x="0" y="0" width="14" height="14">
<rect width="14" height="14" fill="#D9D9D9"/>
</mask>
<g mask="url(#mask0_376_1962)">
<path d="M2.91667 12.25C2.59583 12.25 2.32118 12.1358 2.09271 11.9073C1.86424 11.6788 1.75 11.4042 1.75 11.0833V2.91667C1.75 2.59583 1.86424 2.32118 2.09271 2.09271C2.32118 1.86424 2.59583 1.75 2.91667 1.75H6.41667C6.58194 1.75 6.72049 1.8059 6.83229 1.91771C6.9441 2.02951 7 2.16806 7 2.33333C7 2.49861 6.9441 2.63715 6.83229 2.74896C6.72049 2.86076 6.58194 2.91667 6.41667 2.91667H2.91667V11.0833H11.0833V7.58333C11.0833 7.41806 11.1392 7.27951 11.251 7.16771C11.3628 7.0559 11.5014 7 11.6667 7C11.8319 7 11.9705 7.0559 12.0823 7.16771C12.1941 7.27951 12.25 7.41806 12.25 7.58333V11.0833C12.25 11.4042 12.1358 11.6788 11.9073 11.9073C11.6788 12.1358 11.4042 12.25 11.0833 12.25H2.91667ZM11.0833 3.73333L6.06667 8.75C5.95972 8.85694 5.82361 8.91042 5.65833 8.91042C5.49306 8.91042 5.35694 8.85694 5.25 8.75C5.14306 8.64306 5.08958 8.50694 5.08958 8.34167C5.08958 8.17639 5.14306 8.04028 5.25 7.93333L10.2667 2.91667H8.75C8.58472 2.91667 8.44618 2.86076 8.33437 2.74896C8.22257 2.63715 8.16667 2.49861 8.16667 2.33333C8.16667 2.16806 8.22257 2.02951 8.33437 1.91771C8.44618 1.8059 8.58472 1.75 8.75 1.75H11.6667C11.8319 1.75 11.9705 1.8059 12.0823 1.91771C12.1941 2.02951 12.25 2.16806 12.25 2.33333V5.25C12.25 5.41528 12.1941 5.55382 12.0823 5.66562C11.9705 5.77743 11.8319 5.83333 11.6667 5.83333C11.5014 5.83333 11.3628 5.77743 11.251 5.66562C11.1392 5.55382 11.0833 5.41528 11.0833 5.25V3.73333Z" fill="#333333"/>
</g>
</svg>
