<svg width="20" height="20" viewBox="0 0 20 20" fill="none" xmlns="http://www.w3.org/2000/svg">
<mask id="mask0_769_3216" style="mask-type:alpha" maskUnits="userSpaceOnUse" x="0" y="0" width="20" height="20">
<rect width="20" height="20" fill="#D9D9D9"/>
</mask>
<g mask="url(#mask0_769_3216)">
<path d="M9.99967 9.99998C9.08301 9.99998 8.29829 9.67359 7.64551 9.02081C6.99273 8.36804 6.66634 7.58331 6.66634 6.66665C6.66634 5.74998 6.99273 4.96526 7.64551 4.31248C8.29829 3.6597 9.08301 3.33331 9.99967 3.33331C10.9163 3.33331 11.7011 3.6597 12.3538 4.31248C13.0066 4.96526 13.333 5.74998 13.333 6.66665C13.333 7.58331 13.0066 8.36804 12.3538 9.02081C11.7011 9.67359 10.9163 9.99998 9.99967 9.99998ZM3.33301 15V14.3333C3.33301 13.8611 3.45454 13.4271 3.69759 13.0312C3.94065 12.6354 4.26356 12.3333 4.66634 12.125C5.52745 11.6944 6.40245 11.3715 7.29134 11.1562C8.18023 10.941 9.08301 10.8333 9.99967 10.8333C10.9163 10.8333 11.8191 10.941 12.708 11.1562C13.5969 11.3715 14.4719 11.6944 15.333 12.125C15.7358 12.3333 16.0587 12.6354 16.3018 13.0312C16.5448 13.4271 16.6663 13.8611 16.6663 14.3333V15C16.6663 15.4583 16.5031 15.8507 16.1768 16.1771C15.8504 16.5035 15.458 16.6666 14.9997 16.6666H4.99967C4.54134 16.6666 4.14898 16.5035 3.82259 16.1771C3.4962 15.8507 3.33301 15.4583 3.33301 15ZM4.99967 15H14.9997V14.3333C14.9997 14.1805 14.9615 14.0416 14.8851 13.9166C14.8087 13.7916 14.708 13.6944 14.583 13.625C13.833 13.25 13.0761 12.9687 12.3122 12.7812C11.5483 12.5937 10.7775 12.5 9.99967 12.5C9.2219 12.5 8.45106 12.5937 7.68717 12.7812C6.92329 12.9687 6.16634 13.25 5.41634 13.625C5.29134 13.6944 5.19065 13.7916 5.11426 13.9166C5.03787 14.0416 4.99967 14.1805 4.99967 14.3333V15ZM9.99967 8.33331C10.458 8.33331 10.8504 8.17012 11.1768 7.84373C11.5031 7.51734 11.6663 7.12498 11.6663 6.66665C11.6663 6.20831 11.5031 5.81595 11.1768 5.48956C10.8504 5.16317 10.458 4.99998 9.99967 4.99998C9.54134 4.99998 9.14898 5.16317 8.82259 5.48956C8.4962 5.81595 8.33301 6.20831 8.33301 6.66665C8.33301 7.12498 8.4962 7.51734 8.82259 7.84373C9.14898 8.17012 9.54134 8.33331 9.99967 8.33331Z" fill="#333333"/>
</g>
</svg>
