<svg width="20" height="20" viewBox="0 0 20 20" fill="none" xmlns="http://www.w3.org/2000/svg">
<mask id="mask0_942_1906" style="mask-type:alpha" maskUnits="userSpaceOnUse" x="0" y="0" width="20" height="20">
<rect width="20" height="20" fill="#D9D9D9"/>
</mask>
<g mask="url(#mask0_942_1906)">
<path d="M5 18.3333C4.30556 18.3333 3.71528 18.0902 3.22917 17.6041C2.74306 17.118 2.5 16.5277 2.5 15.8333V14.1666C2.5 13.9305 2.57986 13.7326 2.73958 13.5729C2.89931 13.4131 3.09722 13.3333 3.33333 13.3333H5V2.16662C5 2.06939 5.04167 2.00342 5.125 1.9687C5.20833 1.93398 5.28472 1.95134 5.35417 2.02078L5.95833 2.62495C6.04167 2.70828 6.13889 2.74995 6.25 2.74995C6.36111 2.74995 6.45833 2.70828 6.54167 2.62495L7.20833 1.95828C7.29167 1.87495 7.38889 1.83328 7.5 1.83328C7.61111 1.83328 7.70833 1.87495 7.79167 1.95828L8.45833 2.62495C8.54167 2.70828 8.63889 2.74995 8.75 2.74995C8.86111 2.74995 8.95833 2.70828 9.04167 2.62495L9.70833 1.95828C9.79167 1.87495 9.88889 1.83328 10 1.83328C10.1111 1.83328 10.2083 1.87495 10.2917 1.95828L10.9583 2.62495C11.0417 2.70828 11.1389 2.74995 11.25 2.74995C11.3611 2.74995 11.4583 2.70828 11.5417 2.62495L12.2083 1.95828C12.2917 1.87495 12.3889 1.83328 12.5 1.83328C12.6111 1.83328 12.7083 1.87495 12.7917 1.95828L13.4583 2.62495C13.5417 2.70828 13.6389 2.74995 13.75 2.74995C13.8611 2.74995 13.9583 2.70828 14.0417 2.62495L14.7083 1.95828C14.7917 1.87495 14.8889 1.83328 15 1.83328C15.1111 1.83328 15.2083 1.87495 15.2917 1.95828L15.9583 2.62495C16.0417 2.70828 16.1389 2.74995 16.25 2.74995C16.3611 2.74995 16.4583 2.70828 16.5417 2.62495L17.1458 2.02078C17.2153 1.95134 17.2917 1.93398 17.375 1.9687C17.4583 2.00342 17.5 2.06939 17.5 2.16662V15.8333C17.5 16.5277 17.2569 17.118 16.7708 17.6041C16.2847 18.0902 15.6944 18.3333 15 18.3333H5ZM15 16.6666C15.2361 16.6666 15.434 16.5868 15.5938 16.427C15.7535 16.2673 15.8333 16.0694 15.8333 15.8333V4.16662H6.66667V13.3333H13.3333C13.5694 13.3333 13.7674 13.4131 13.9271 13.5729C14.0868 13.7326 14.1667 13.9305 14.1667 14.1666V15.8333C14.1667 16.0694 14.2465 16.2673 14.4062 16.427C14.566 16.5868 14.7639 16.6666 15 16.6666ZM8.33333 5.83328H11.6667C11.9028 5.83328 12.1007 5.91314 12.2604 6.07287C12.4201 6.23259 12.5 6.43051 12.5 6.66662C12.5 6.90273 12.4201 7.10064 12.2604 7.26037C12.1007 7.42009 11.9028 7.49995 11.6667 7.49995H8.33333C8.09722 7.49995 7.89931 7.42009 7.73958 7.26037C7.57986 7.10064 7.5 6.90273 7.5 6.66662C7.5 6.43051 7.57986 6.23259 7.73958 6.07287C7.89931 5.91314 8.09722 5.83328 8.33333 5.83328ZM8.33333 8.33328H11.6667C11.9028 8.33328 12.1007 8.41314 12.2604 8.57287C12.4201 8.73259 12.5 8.93051 12.5 9.16662C12.5 9.40273 12.4201 9.60064 12.2604 9.76037C12.1007 9.92009 11.9028 9.99995 11.6667 9.99995H8.33333C8.09722 9.99995 7.89931 9.92009 7.73958 9.76037C7.57986 9.60064 7.5 9.40273 7.5 9.16662C7.5 8.93051 7.57986 8.73259 7.73958 8.57287C7.89931 8.41314 8.09722 8.33328 8.33333 8.33328ZM14.1667 7.49995C13.9306 7.49995 13.7326 7.42009 13.5729 7.26037C13.4132 7.10064 13.3333 6.90273 13.3333 6.66662C13.3333 6.43051 13.4132 6.23259 13.5729 6.07287C13.7326 5.91314 13.9306 5.83328 14.1667 5.83328C14.4028 5.83328 14.6007 5.91314 14.7604 6.07287C14.9201 6.23259 15 6.43051 15 6.66662C15 6.90273 14.9201 7.10064 14.7604 7.26037C14.6007 7.42009 14.4028 7.49995 14.1667 7.49995ZM14.1667 9.99995C13.9306 9.99995 13.7326 9.92009 13.5729 9.76037C13.4132 9.60064 13.3333 9.40273 13.3333 9.16662C13.3333 8.93051 13.4132 8.73259 13.5729 8.57287C13.7326 8.41314 13.9306 8.33328 14.1667 8.33328C14.4028 8.33328 14.6007 8.41314 14.7604 8.57287C14.9201 8.73259 15 8.93051 15 9.16662C15 9.40273 14.9201 9.60064 14.7604 9.76037C14.6007 9.92009 14.4028 9.99995 14.1667 9.99995ZM5 16.6666H12.5V14.9999H4.16667V15.8333C4.16667 16.0694 4.24653 16.2673 4.40625 16.427C4.56597 16.5868 4.76389 16.6666 5 16.6666Z" fill="#333333"/>
</g>
</svg>
