<svg width="24" height="24" viewBox="0 0 24 24" fill="none" xmlns="http://www.w3.org/2000/svg">
<mask id="mask0_202_14" style="mask-type:alpha" maskUnits="userSpaceOnUse" x="0" y="0" width="24" height="24">
<rect width="24" height="24" fill="#D9D9D9"/>
</mask>
<g mask="url(#mask0_202_14)">
<path d="M6 22C5.16667 22 4.45833 21.7083 3.875 21.125C3.29167 20.5417 3 19.8333 3 19V17C3 16.7167 3.09583 16.4792 3.2875 16.2875C3.47917 16.0958 3.71667 16 4 16H6V2.60001C6 2.48335 6.05 2.40418 6.15 2.36251C6.25 2.32085 6.34167 2.34168 6.425 2.42501L7.15 3.15001C7.25 3.25001 7.36667 3.30001 7.5 3.30001C7.63333 3.30001 7.75 3.25001 7.85 3.15001L8.65 2.35001C8.75 2.25001 8.86667 2.20001 9 2.20001C9.13333 2.20001 9.25 2.25001 9.35 2.35001L10.15 3.15001C10.25 3.25001 10.3667 3.30001 10.5 3.30001C10.6333 3.30001 10.75 3.25001 10.85 3.15001L11.65 2.35001C11.75 2.25001 11.8667 2.20001 12 2.20001C12.1333 2.20001 12.25 2.25001 12.35 2.35001L13.15 3.15001C13.25 3.25001 13.3667 3.30001 13.5 3.30001C13.6333 3.30001 13.75 3.25001 13.85 3.15001L14.65 2.35001C14.75 2.25001 14.8667 2.20001 15 2.20001C15.1333 2.20001 15.25 2.25001 15.35 2.35001L16.15 3.15001C16.25 3.25001 16.3667 3.30001 16.5 3.30001C16.6333 3.30001 16.75 3.25001 16.85 3.15001L17.65 2.35001C17.75 2.25001 17.8667 2.20001 18 2.20001C18.1333 2.20001 18.25 2.25001 18.35 2.35001L19.15 3.15001C19.25 3.25001 19.3667 3.30001 19.5 3.30001C19.6333 3.30001 19.75 3.25001 19.85 3.15001L20.575 2.42501C20.6583 2.34168 20.75 2.32085 20.85 2.36251C20.95 2.40418 21 2.48335 21 2.60001V19C21 19.8333 20.7083 20.5417 20.125 21.125C19.5417 21.7083 18.8333 22 18 22H6ZM18 20C18.2833 20 18.5208 19.9042 18.7125 19.7125C18.9042 19.5208 19 19.2833 19 19V5.00001H8V16H16C16.2833 16 16.5208 16.0958 16.7125 16.2875C16.9042 16.4792 17 16.7167 17 17V19C17 19.2833 17.0958 19.5208 17.2875 19.7125C17.4792 19.9042 17.7167 20 18 20ZM10 7.00001H14C14.2833 7.00001 14.5208 7.09585 14.7125 7.28751C14.9042 7.47918 15 7.71668 15 8.00001C15 8.28335 14.9042 8.52085 14.7125 8.71251C14.5208 8.90418 14.2833 9.00001 14 9.00001H10C9.71667 9.00001 9.47917 8.90418 9.2875 8.71251C9.09583 8.52085 9 8.28335 9 8.00001C9 7.71668 9.09583 7.47918 9.2875 7.28751C9.47917 7.09585 9.71667 7.00001 10 7.00001ZM10 10H14C14.2833 10 14.5208 10.0958 14.7125 10.2875C14.9042 10.4792 15 10.7167 15 11C15 11.2833 14.9042 11.5208 14.7125 11.7125C14.5208 11.9042 14.2833 12 14 12H10C9.71667 12 9.47917 11.9042 9.2875 11.7125C9.09583 11.5208 9 11.2833 9 11C9 10.7167 9.09583 10.4792 9.2875 10.2875C9.47917 10.0958 9.71667 10 10 10ZM17 9.00001C16.7167 9.00001 16.4792 8.90418 16.2875 8.71251C16.0958 8.52085 16 8.28335 16 8.00001C16 7.71668 16.0958 7.47918 16.2875 7.28751C16.4792 7.09585 16.7167 7.00001 17 7.00001C17.2833 7.00001 17.5208 7.09585 17.7125 7.28751C17.9042 7.47918 18 7.71668 18 8.00001C18 8.28335 17.9042 8.52085 17.7125 8.71251C17.5208 8.90418 17.2833 9.00001 17 9.00001ZM17 12C16.7167 12 16.4792 11.9042 16.2875 11.7125C16.0958 11.5208 16 11.2833 16 11C16 10.7167 16.0958 10.4792 16.2875 10.2875C16.4792 10.0958 16.7167 10 17 10C17.2833 10 17.5208 10.0958 17.7125 10.2875C17.9042 10.4792 18 10.7167 18 11C18 11.2833 17.9042 11.5208 17.7125 11.7125C17.5208 11.9042 17.2833 12 17 12ZM6 20H15V18H5V19C5 19.2833 5.09583 19.5208 5.2875 19.7125C5.47917 19.9042 5.71667 20 6 20Z" fill="#333333"/>
</g>
</svg>
