<svg width="20" height="20" viewBox="0 0 20 20" fill="none" xmlns="http://www.w3.org/2000/svg">
<mask id="mask0_167_52" style="mask-type:alpha" maskUnits="userSpaceOnUse" x="0" y="0" width="20" height="20">
<rect width="20" height="20" fill="#D9D9D9"/>
</mask>
<g mask="url(#mask0_167_52)">
<path d="M5 18.3333C4.30556 18.3333 3.71528 18.0902 3.22917 17.6041C2.74306 17.118 2.5 16.5277 2.5 15.8333V14.1666C2.5 13.9305 2.57986 13.7326 2.73958 13.5728C2.89931 13.4131 3.09722 13.3333 3.33333 13.3333H5V2.16659C5 2.06936 5.04167 2.00339 5.125 1.96867C5.20833 1.93395 5.28472 1.95131 5.35417 2.02075L5.95833 2.62492C6.04167 2.70825 6.13889 2.74992 6.25 2.74992C6.36111 2.74992 6.45833 2.70825 6.54167 2.62492L7.20833 1.95825C7.29167 1.87492 7.38889 1.83325 7.5 1.83325C7.61111 1.83325 7.70833 1.87492 7.79167 1.95825L8.45833 2.62492C8.54167 2.70825 8.63889 2.74992 8.75 2.74992C8.86111 2.74992 8.95833 2.70825 9.04167 2.62492L9.70833 1.95825C9.79167 1.87492 9.88889 1.83325 10 1.83325C10.1111 1.83325 10.2083 1.87492 10.2917 1.95825L10.9583 2.62492C11.0417 2.70825 11.1389 2.74992 11.25 2.74992C11.3611 2.74992 11.4583 2.70825 11.5417 2.62492L12.2083 1.95825C12.2917 1.87492 12.3889 1.83325 12.5 1.83325C12.6111 1.83325 12.7083 1.87492 12.7917 1.95825L13.4583 2.62492C13.5417 2.70825 13.6389 2.74992 13.75 2.74992C13.8611 2.74992 13.9583 2.70825 14.0417 2.62492L14.7083 1.95825C14.7917 1.87492 14.8889 1.83325 15 1.83325C15.1111 1.83325 15.2083 1.87492 15.2917 1.95825L15.9583 2.62492C16.0417 2.70825 16.1389 2.74992 16.25 2.74992C16.3611 2.74992 16.4583 2.70825 16.5417 2.62492L17.1458 2.02075C17.2153 1.95131 17.2917 1.93395 17.375 1.96867C17.4583 2.00339 17.5 2.06936 17.5 2.16659V15.8333C17.5 16.5277 17.2569 17.118 16.7708 17.6041C16.2847 18.0902 15.6944 18.3333 15 18.3333H5ZM15 16.6666C15.2361 16.6666 15.434 16.5867 15.5938 16.427C15.7535 16.2673 15.8333 16.0694 15.8333 15.8333V4.16659H6.66667V13.3333H13.3333C13.5694 13.3333 13.7674 13.4131 13.9271 13.5728C14.0868 13.7326 14.1667 13.9305 14.1667 14.1666V15.8333C14.1667 16.0694 14.2465 16.2673 14.4062 16.427C14.566 16.5867 14.7639 16.6666 15 16.6666ZM8.33333 5.83325H11.6667C11.9028 5.83325 12.1007 5.91311 12.2604 6.07284C12.4201 6.23256 12.5 6.43047 12.5 6.66659C12.5 6.9027 12.4201 7.10061 12.2604 7.26034C12.1007 7.42006 11.9028 7.49992 11.6667 7.49992H8.33333C8.09722 7.49992 7.89931 7.42006 7.73958 7.26034C7.57986 7.10061 7.5 6.9027 7.5 6.66659C7.5 6.43047 7.57986 6.23256 7.73958 6.07284C7.89931 5.91311 8.09722 5.83325 8.33333 5.83325ZM8.33333 8.33325H11.6667C11.9028 8.33325 12.1007 8.41311 12.2604 8.57284C12.4201 8.73256 12.5 8.93047 12.5 9.16659C12.5 9.4027 12.4201 9.60061 12.2604 9.76034C12.1007 9.92006 11.9028 9.99992 11.6667 9.99992H8.33333C8.09722 9.99992 7.89931 9.92006 7.73958 9.76034C7.57986 9.60061 7.5 9.4027 7.5 9.16659C7.5 8.93047 7.57986 8.73256 7.73958 8.57284C7.89931 8.41311 8.09722 8.33325 8.33333 8.33325ZM14.1667 7.49992C13.9306 7.49992 13.7326 7.42006 13.5729 7.26034C13.4132 7.10061 13.3333 6.9027 13.3333 6.66659C13.3333 6.43047 13.4132 6.23256 13.5729 6.07284C13.7326 5.91311 13.9306 5.83325 14.1667 5.83325C14.4028 5.83325 14.6007 5.91311 14.7604 6.07284C14.9201 6.23256 15 6.43047 15 6.66659C15 6.9027 14.9201 7.10061 14.7604 7.26034C14.6007 7.42006 14.4028 7.49992 14.1667 7.49992ZM14.1667 9.99992C13.9306 9.99992 13.7326 9.92006 13.5729 9.76034C13.4132 9.60061 13.3333 9.4027 13.3333 9.16659C13.3333 8.93047 13.4132 8.73256 13.5729 8.57284C13.7326 8.41311 13.9306 8.33325 14.1667 8.33325C14.4028 8.33325 14.6007 8.41311 14.7604 8.57284C14.9201 8.73256 15 8.93047 15 9.16659C15 9.4027 14.9201 9.60061 14.7604 9.76034C14.6007 9.92006 14.4028 9.99992 14.1667 9.99992ZM5 16.6666H12.5V14.9999H4.16667V15.8333C4.16667 16.0694 4.24653 16.2673 4.40625 16.427C4.56597 16.5867 4.76389 16.6666 5 16.6666Z" fill="#003366"/>
</g>
</svg>
