<svg width="14" height="14" viewBox="0 0 14 14" fill="none" xmlns="http://www.w3.org/2000/svg">
<mask id="mask0_566_846" style="mask-type:alpha" maskUnits="userSpaceOnUse" x="0" y="0" width="14" height="14">
<rect width="14" height="14" fill="#D9D9D9"/>
</mask>
<g mask="url(#mask0_566_846)">
<path d="M6.70833 8.63333V5.36667C6.70833 5.23056 6.65 5.13819 6.53333 5.08958C6.41667 5.04097 6.30972 5.06528 6.2125 5.1625L4.78333 6.59167C4.66667 6.70833 4.60833 6.84444 4.60833 7C4.60833 7.15556 4.66667 7.29167 4.78333 7.40833L6.2125 8.8375C6.30972 8.93472 6.41667 8.95903 6.53333 8.91042C6.65 8.86181 6.70833 8.76944 6.70833 8.63333ZM2.91667 12.25C2.59583 12.25 2.32118 12.1358 2.09271 11.9073C1.86424 11.6788 1.75 11.4042 1.75 11.0833V2.91667C1.75 2.59583 1.86424 2.32118 2.09271 2.09271C2.32118 1.86424 2.59583 1.75 2.91667 1.75H11.0833C11.4042 1.75 11.6788 1.86424 11.9073 2.09271C12.1358 2.32118 12.25 2.59583 12.25 2.91667V11.0833C12.25 11.4042 12.1358 11.6788 11.9073 11.9073C11.6788 12.1358 11.4042 12.25 11.0833 12.25H2.91667ZM9.33333 11.0833H11.0833V2.91667H9.33333V11.0833ZM8.16667 11.0833V2.91667H2.91667V11.0833H8.16667Z" fill="#333333"/>
</g>
</svg>
