<svg width="16" height="16" viewBox="0 0 16 16" fill="none" xmlns="http://www.w3.org/2000/svg">
<mask id="mask0_229_146" style="mask-type:alpha" maskUnits="userSpaceOnUse" x="0" y="0" width="16" height="16">
<rect width="16" height="16" fill="#D9D9D9"/>
</mask>
<g mask="url(#mask0_229_146)">
<path d="M8.66658 7.73331V5.33331C8.66658 5.14442 8.6027 4.98609 8.47492 4.85831C8.34714 4.73054 8.18881 4.66665 7.99992 4.66665C7.81103 4.66665 7.6527 4.73054 7.52492 4.85831C7.39714 4.98609 7.33325 5.14442 7.33325 5.33331V7.98331C7.33325 8.0722 7.34992 8.15831 7.38325 8.24165C7.41658 8.32498 7.46659 8.39998 7.53325 8.46665L9.73325 10.6666C9.85547 10.7889 10.011 10.85 10.1999 10.85C10.3888 10.85 10.5444 10.7889 10.6666 10.6666C10.7888 10.5444 10.8499 10.3889 10.8499 10.2C10.8499 10.0111 10.7888 9.85553 10.6666 9.73331L8.66658 7.73331ZM7.99992 14.6666C7.0777 14.6666 6.21103 14.4916 5.39992 14.1416C4.58881 13.7916 3.88325 13.3166 3.28325 12.7166C2.68325 12.1166 2.20825 11.4111 1.85825 10.6C1.50825 9.78887 1.33325 8.9222 1.33325 7.99998C1.33325 7.07776 1.50825 6.21109 1.85825 5.39998C2.20825 4.58887 2.68325 3.88331 3.28325 3.28331C3.88325 2.68331 4.58881 2.20831 5.39992 1.85831C6.21103 1.50831 7.0777 1.33331 7.99992 1.33331C8.92214 1.33331 9.78881 1.50831 10.5999 1.85831C11.411 2.20831 12.1166 2.68331 12.7166 3.28331C13.3166 3.88331 13.7916 4.58887 14.1416 5.39998C14.4916 6.21109 14.6666 7.07776 14.6666 7.99998C14.6666 8.9222 14.4916 9.78887 14.1416 10.6C13.7916 11.4111 13.3166 12.1166 12.7166 12.7166C12.1166 13.3166 11.411 13.7916 10.5999 14.1416C9.78881 14.4916 8.92214 14.6666 7.99992 14.6666ZM7.99992 13.3333C9.4777 13.3333 10.736 12.8139 11.7749 11.775C12.8138 10.7361 13.3333 9.47776 13.3333 7.99998C13.3333 6.5222 12.8138 5.26387 11.7749 4.22498C10.736 3.18609 9.4777 2.66665 7.99992 2.66665C6.52214 2.66665 5.26381 3.18609 4.22492 4.22498C3.18603 5.26387 2.66659 6.5222 2.66659 7.99998C2.66659 9.47776 3.18603 10.7361 4.22492 11.775C5.26381 12.8139 6.52214 13.3333 7.99992 13.3333Z" fill="#666666"/>
</g>
</svg>
