<svg width="16" height="17" viewBox="0 0 16 17" fill="none" xmlns="http://www.w3.org/2000/svg">
<mask id="mask0_1361_1218" style="mask-type:alpha" maskUnits="userSpaceOnUse" x="0" y="0" width="16" height="17">
<rect y="0.5" width="16" height="16" fill="#D9D9D9"/>
</mask>
<g mask="url(#mask0_1361_1218)">
<path d="M7.21665 15.1666C6.91665 15.1666 6.65832 15.0666 6.44165 14.8666C6.22499 14.6666 6.09443 14.4221 6.04999 14.1333L5.89999 13.0333C5.75554 12.9777 5.61943 12.911 5.49165 12.8333C5.36388 12.7555 5.23888 12.6721 5.11665 12.5833L4.08332 13.0166C3.80554 13.1388 3.52776 13.1499 3.24999 13.0499C2.97221 12.9499 2.75554 12.7721 2.59999 12.5166L1.81665 11.1499C1.6611 10.8944 1.61665 10.6221 1.68332 10.3333C1.74999 10.0444 1.89999 9.80547 2.13332 9.61658L3.01665 8.94992C3.00554 8.87214 2.99999 8.79714 2.99999 8.72492V8.27492C2.99999 8.2027 3.00554 8.1277 3.01665 8.04992L2.13332 7.38325C1.89999 7.19436 1.74999 6.95547 1.68332 6.66658C1.61665 6.3777 1.6611 6.10547 1.81665 5.84992L2.59999 4.48325C2.75554 4.2277 2.97221 4.04992 3.24999 3.94992C3.52776 3.84992 3.80554 3.86103 4.08332 3.98325L5.11665 4.41659C5.23888 4.3277 5.36665 4.24436 5.49999 4.16659C5.63332 4.08881 5.76665 4.02214 5.89999 3.96659L6.04999 2.86659C6.09443 2.5777 6.22499 2.33325 6.44165 2.13325C6.65832 1.93325 6.91665 1.83325 7.21665 1.83325H8.78332C9.08332 1.83325 9.34165 1.93325 9.55832 2.13325C9.77499 2.33325 9.90554 2.5777 9.94999 2.86659L10.1 3.96659C10.2444 4.02214 10.3805 4.08881 10.5083 4.16659C10.6361 4.24436 10.7611 4.3277 10.8833 4.41659L11.9167 3.98325C12.1944 3.86103 12.4722 3.84992 12.75 3.94992C13.0278 4.04992 13.2444 4.2277 13.4 4.48325L14.1833 5.84992C14.3389 6.10547 14.3833 6.3777 14.3167 6.66658C14.25 6.95547 14.1 7.19436 13.8667 7.38325L12.9833 8.04992C12.9944 8.1277 13 8.2027 13 8.27492V8.72492C13 8.79714 12.9889 8.87214 12.9667 8.94992L13.85 9.61658C14.0833 9.80547 14.2333 10.0444 14.3 10.3333C14.3667 10.6221 14.3222 10.8944 14.1667 11.1499L13.3667 12.5166C13.2111 12.7721 12.9944 12.9499 12.7167 13.0499C12.4389 13.1499 12.1611 13.1388 11.8833 13.0166L10.8833 12.5833C10.7611 12.6721 10.6333 12.7555 10.5 12.8333C10.3667 12.911 10.2333 12.9777 10.1 13.0333L9.94999 14.1333C9.90554 14.4221 9.77499 14.6666 9.55832 14.8666C9.34165 15.0666 9.08332 15.1666 8.78332 15.1666H7.21665ZM7.33332 13.8333H8.64999L8.88332 12.0666C9.22776 11.9777 9.54721 11.8471 9.84165 11.6749C10.1361 11.5027 10.4055 11.2944 10.65 11.0499L12.3 11.7333L12.95 10.5999L11.5167 9.51659C11.5722 9.36103 11.6111 9.19714 11.6333 9.02492C11.6555 8.8527 11.6667 8.6777 11.6667 8.49992C11.6667 8.32214 11.6555 8.14714 11.6333 7.97492C11.6111 7.8027 11.5722 7.63881 11.5167 7.48325L12.95 6.39992L12.3 5.26659L10.65 5.96659C10.4055 5.71103 10.1361 5.49714 9.84165 5.32492C9.54721 5.1527 9.22776 5.02214 8.88332 4.93325L8.66665 3.16659H7.34999L7.11665 4.93325C6.77221 5.02214 6.45276 5.1527 6.15832 5.32492C5.86388 5.49714 5.59443 5.70547 5.34999 5.94992L3.69999 5.26659L3.04999 6.39992L4.48332 7.46658C4.42776 7.63325 4.38888 7.79992 4.36665 7.96658C4.34443 8.13325 4.33332 8.31103 4.33332 8.49992C4.33332 8.6777 4.34443 8.84992 4.36665 9.01659C4.38888 9.18325 4.42776 9.34992 4.48332 9.51659L3.04999 10.5999L3.69999 11.7333L5.34999 11.0333C5.59443 11.2888 5.86388 11.5027 6.15832 11.6749C6.45276 11.8471 6.77221 11.9777 7.11665 12.0666L7.33332 13.8333ZM8.03332 10.8333C8.67776 10.8333 9.22776 10.6055 9.68332 10.1499C10.1389 9.69436 10.3667 9.14436 10.3667 8.49992C10.3667 7.85547 10.1389 7.30547 9.68332 6.84992C9.22776 6.39436 8.67776 6.16659 8.03332 6.16659C7.37776 6.16659 6.82499 6.39436 6.37499 6.84992C5.92499 7.30547 5.69999 7.85547 5.69999 8.49992C5.69999 9.14436 5.92499 9.69436 6.37499 10.1499C6.82499 10.6055 7.37776 10.8333 8.03332 10.8333Z" fill="white"/>
</g>
</svg>
