<svg width="16" height="16" viewBox="0 0 16 16" fill="none" xmlns="http://www.w3.org/2000/svg">
<mask id="mask0_262_76" style="mask-type:alpha" maskUnits="userSpaceOnUse" x="0" y="0" width="16" height="16">
<rect width="16" height="16" fill="#D9D9D9"/>
</mask>
<g mask="url(#mask0_262_76)">
<path d="M4.00008 14.6666C3.63341 14.6666 3.31953 14.5361 3.05841 14.275C2.7973 14.0139 2.66675 13.7 2.66675 13.3333V5.33331C2.66675 4.96665 2.7973 4.65276 3.05841 4.39165C3.31953 4.13054 3.63341 3.99998 4.00008 3.99998H5.33341C5.33341 3.26665 5.59453 2.63887 6.11675 2.11665C6.63897 1.59442 7.26675 1.33331 8.00008 1.33331C8.73342 1.33331 9.36119 1.59442 9.88341 2.11665C10.4056 2.63887 10.6667 3.26665 10.6667 3.99998H12.0001C12.3667 3.99998 12.6806 4.13054 12.9417 4.39165C13.2029 4.65276 13.3334 4.96665 13.3334 5.33331V13.3333C13.3334 13.7 13.2029 14.0139 12.9417 14.275C12.6806 14.5361 12.3667 14.6666 12.0001 14.6666H4.00008ZM4.00008 13.3333H12.0001V5.33331H10.6667V6.66665C10.6667 6.85554 10.6029 7.01387 10.4751 7.14165C10.3473 7.26942 10.189 7.33331 10.0001 7.33331C9.81119 7.33331 9.65286 7.26942 9.52508 7.14165C9.3973 7.01387 9.33342 6.85554 9.33342 6.66665V5.33331H6.66675V6.66665C6.66675 6.85554 6.60286 7.01387 6.47508 7.14165C6.3473 7.26942 6.18897 7.33331 6.00008 7.33331C5.81119 7.33331 5.65286 7.26942 5.52508 7.14165C5.3973 7.01387 5.33341 6.85554 5.33341 6.66665V5.33331H4.00008V13.3333ZM6.66675 3.99998H9.33342C9.33342 3.63331 9.20286 3.31942 8.94175 3.05831C8.68064 2.7972 8.36675 2.66665 8.00008 2.66665C7.63341 2.66665 7.31953 2.7972 7.05841 3.05831C6.7973 3.31942 6.66675 3.63331 6.66675 3.99998Z" fill="#666666"/>
</g>
</svg>
