<svg width="20" height="20" viewBox="0 0 20 20" fill="none" xmlns="http://www.w3.org/2000/svg">
<mask id="mask0_747_211" style="mask-type:alpha" maskUnits="userSpaceOnUse" x="0" y="0" width="20" height="20">
<rect width="20" height="20" fill="#D9D9D9"/>
</mask>
<g mask="url(#mask0_747_211)">
<path d="M4.99967 10.0413C4.99967 10.6663 5.11773 11.274 5.35384 11.8643C5.58995 12.4545 5.95801 12.9997 6.45801 13.4997L6.66634 13.708V12.4997C6.66634 12.2636 6.7462 12.0656 6.90592 11.9059C7.06565 11.7462 7.26356 11.6663 7.49967 11.6663C7.73579 11.6663 7.9337 11.7462 8.09342 11.9059C8.25315 12.0656 8.33301 12.2636 8.33301 12.4997V15.833C8.33301 16.0691 8.25315 16.267 8.09342 16.4268C7.9337 16.5865 7.73579 16.6663 7.49967 16.6663H4.16634C3.93023 16.6663 3.73231 16.5865 3.57259 16.4268C3.41287 16.267 3.33301 16.0691 3.33301 15.833C3.33301 15.5969 3.41287 15.399 3.57259 15.2393C3.73231 15.0795 3.93023 14.9997 4.16634 14.9997H5.62467L5.29134 14.708C4.56912 14.0691 4.06217 13.34 3.77051 12.5205C3.47884 11.7011 3.33301 10.8747 3.33301 10.0413C3.33301 8.73579 3.66634 7.55176 4.33301 6.48926C4.99967 5.42676 5.89551 4.61079 7.02051 4.04134C7.21495 3.93023 7.41981 3.92329 7.63509 4.02051C7.85037 4.11773 7.99273 4.27745 8.06217 4.49967C8.13162 4.70801 8.12815 4.91634 8.05176 5.12467C7.97537 5.33301 7.83995 5.49273 7.64551 5.60384C6.83995 6.04829 6.19759 6.66287 5.71842 7.44759C5.23926 8.23231 4.99967 9.0969 4.99967 10.0413ZM14.9997 9.95801C14.9997 9.33301 14.8816 8.72537 14.6455 8.13509C14.4094 7.54481 14.0413 6.99967 13.5413 6.49967L13.333 6.29134V7.49967C13.333 7.73579 13.2531 7.9337 13.0934 8.09342C12.9337 8.25315 12.7358 8.33301 12.4997 8.33301C12.2636 8.33301 12.0656 8.25315 11.9059 8.09342C11.7462 7.9337 11.6663 7.73579 11.6663 7.49967V4.16634C11.6663 3.93023 11.7462 3.73231 11.9059 3.57259C12.0656 3.41287 12.2636 3.33301 12.4997 3.33301H15.833C16.0691 3.33301 16.267 3.41287 16.4268 3.57259C16.5865 3.73231 16.6663 3.93023 16.6663 4.16634C16.6663 4.40245 16.5865 4.60037 16.4268 4.76009C16.267 4.91981 16.0691 4.99967 15.833 4.99967H14.3747L14.708 5.29134C15.3886 5.9719 15.8851 6.71148 16.1976 7.51009C16.5101 8.3087 16.6663 9.12467 16.6663 9.95801C16.6663 11.2636 16.333 12.4476 15.6663 13.5101C14.9997 14.5726 14.1038 15.3886 12.9788 15.958C12.7844 16.0691 12.5795 16.0761 12.3643 15.9788C12.149 15.8816 12.0066 15.7219 11.9372 15.4997C11.8677 15.2913 11.8712 15.083 11.9476 14.8747C12.024 14.6663 12.1594 14.5066 12.3538 14.3955C13.1594 13.9511 13.8018 13.3365 14.2809 12.5518C14.7601 11.767 14.9997 10.9025 14.9997 9.95801Z" fill="#333333"/>
</g>
</svg>
