<svg width="20" height="20" viewBox="0 0 20 20" fill="none" xmlns="http://www.w3.org/2000/svg">
<mask id="mask0_942_1913" style="mask-type:alpha" maskUnits="userSpaceOnUse" x="0" y="0" width="20" height="20">
<rect width="20" height="20" fill="#D9D9D9"/>
</mask>
<g mask="url(#mask0_942_1913)">
<path d="M4.99967 10.0415C4.99967 10.6665 5.11773 11.2741 5.35384 11.8644C5.58995 12.4547 5.95801 12.9998 6.45801 13.4998L6.66634 13.7081V12.4998C6.66634 12.2637 6.7462 12.0658 6.90592 11.906C7.06565 11.7463 7.26356 11.6665 7.49967 11.6665C7.73579 11.6665 7.9337 11.7463 8.09342 11.906C8.25315 12.0658 8.33301 12.2637 8.33301 12.4998V15.8331C8.33301 16.0692 8.25315 16.2672 8.09342 16.4269C7.9337 16.5866 7.73579 16.6665 7.49967 16.6665H4.16634C3.93023 16.6665 3.73231 16.5866 3.57259 16.4269C3.41287 16.2672 3.33301 16.0692 3.33301 15.8331C3.33301 15.597 3.41287 15.3991 3.57259 15.2394C3.73231 15.0797 3.93023 14.9998 4.16634 14.9998H5.62467L5.29134 14.7081C4.56912 14.0692 4.06217 13.3401 3.77051 12.5206C3.47884 11.7012 3.33301 10.8748 3.33301 10.0415C3.33301 8.73591 3.66634 7.55188 4.33301 6.48938C4.99967 5.42688 5.89551 4.61091 7.02051 4.04146C7.21495 3.93035 7.41981 3.92341 7.63509 4.02063C7.85037 4.11785 7.99273 4.27757 8.06217 4.4998C8.13162 4.70813 8.12815 4.91646 8.05176 5.1248C7.97537 5.33313 7.83995 5.49285 7.64551 5.60396C6.83995 6.04841 6.19759 6.66299 5.71842 7.44771C5.23926 8.23244 4.99967 9.09702 4.99967 10.0415ZM14.9997 9.95813C14.9997 9.33313 14.8816 8.72549 14.6455 8.13521C14.4094 7.54494 14.0413 6.9998 13.5413 6.4998L13.333 6.29146V7.4998C13.333 7.73591 13.2531 7.93382 13.0934 8.09355C12.9337 8.25327 12.7358 8.33313 12.4997 8.33313C12.2636 8.33313 12.0656 8.25327 11.9059 8.09355C11.7462 7.93382 11.6663 7.73591 11.6663 7.4998V4.16646C11.6663 3.93035 11.7462 3.73244 11.9059 3.57271C12.0656 3.41299 12.2636 3.33313 12.4997 3.33313H15.833C16.0691 3.33313 16.267 3.41299 16.4268 3.57271C16.5865 3.73244 16.6663 3.93035 16.6663 4.16646C16.6663 4.40257 16.5865 4.60049 16.4268 4.76021C16.267 4.91994 16.0691 4.9998 15.833 4.9998H14.3747L14.708 5.29146C15.3886 5.97202 15.8851 6.7116 16.1976 7.51021C16.5101 8.30882 16.6663 9.1248 16.6663 9.95813C16.6663 11.2637 16.333 12.4477 15.6663 13.5102C14.9997 14.5727 14.1038 15.3887 12.9788 15.9581C12.7844 16.0692 12.5795 16.0762 12.3643 15.979C12.149 15.8817 12.0066 15.722 11.9372 15.4998C11.8677 15.2915 11.8712 15.0831 11.9476 14.8748C12.024 14.6665 12.1594 14.5067 12.3538 14.3956C13.1594 13.9512 13.8018 13.3366 14.2809 12.5519C14.7601 11.7672 14.9997 10.9026 14.9997 9.95813Z" fill="#333333"/>
</g>
</svg>
