<svg width="41" height="20" viewBox="0 0 41 20" fill="none" xmlns="http://www.w3.org/2000/svg">
<path d="M7.82031 10.0947C10.4684 6.73345 17.7742 0 27.7346 0C34.7256 0 40.0173 3.98196 40.0173 3.98196C36.0816 2.06912 20.5147 -1.04777 8.26055 10.2884L7.82031 10.0925V10.0947Z" fill="#F6BE00"/>
<path d="M39.2054 11.2855C39.4717 11.2855 39.7359 11.3075 39.9912 11.3471V9.18332C39.5158 9.11728 39.0095 9.08646 38.4614 9.08646C34.6555 9.08646 31.7807 11.3625 31.7807 14.4112C31.7807 14.6203 31.7961 14.8228 31.8203 15.0209C31.2612 14.0832 30.0242 13.6033 28.2588 13.2423C26.0158 12.7845 25.7054 12.5864 25.7516 12.0911C25.7957 11.6222 26.5485 11.1886 27.6711 11.1886C28.3931 11.1886 29.355 11.3581 30.2113 11.7587V9.48928C29.3858 9.23614 28.4833 9.06665 27.5082 9.06665C24.6752 9.06665 22.7756 10.427 22.6237 12.2892V12.3244C21.9391 10.4886 20.3411 9.11067 17.5874 9.11067C14.2789 9.11067 12.0183 11.532 12.0183 14.4684C12.0183 14.5432 12.0183 14.6159 12.0227 14.6885C11.3976 13.3392 9.77528 12.7162 7.58508 12.2386C4.99427 11.6839 4.62667 11.4263 4.62667 10.8342C4.62667 10.2421 5.28703 9.78424 6.31939 9.80625C7.12063 9.82386 7.60049 10.0154 7.82061 10.0946C8.45896 9.29998 9.14354 8.54057 9.87434 7.81857C8.79135 7.42456 7.6093 7.21985 6.3326 7.21985C3.25092 7.21985 1.10254 8.76068 1.10254 11.0763C1.10254 12.8549 2.03365 13.6627 3.66034 14.2152C3.74618 14.2439 4.00373 14.3231 4.1468 14.3693C4.71031 14.5322 5.33766 14.6753 6.02663 14.8228C8.56682 15.3665 8.77814 15.8265 8.77814 16.3306C8.77814 16.9227 8.07155 17.2793 6.8873 17.2793C5.53356 17.2793 4.28328 16.8787 2.97356 16.0312C2.3022 16.9403 1.61102 17.9397 1.23901 18.5494C2.88771 19.4475 4.80937 20 6.82787 20C10.1143 20 12.1922 18.5868 12.3001 16.2668C12.9956 18.3777 14.9415 19.7491 17.5697 19.7491C18.0738 19.7491 18.8002 19.7336 19.9977 19.4343V17.1825C18.8861 17.5038 18.4106 17.539 17.7569 17.5038C16.4471 17.4378 15.3795 16.7004 15.0736 15.4083H22.9847C23.0023 15.1442 23.0243 14.9747 23.0243 14.6951V14.6555C23.0243 14.3781 23.0089 14.1008 22.9781 13.83C23.5812 14.6599 24.8976 14.9945 26.7047 15.3643C28.9082 15.8111 29.0314 16.1479 29.0314 16.663C29.0314 17.1208 28.4437 17.6447 27.1406 17.6007C25.8067 17.5545 24.2394 17.156 23.0309 16.4759V19.0777C24.2944 19.6412 25.8925 19.9912 27.1318 19.9912C30.1122 19.9912 32.1527 18.2478 32.1527 16.3614V16.2381C32.6788 17.4708 33.7156 18.4107 34.891 18.983C36.0665 19.5531 37.3234 19.7336 38.3535 19.7402C38.9588 19.7446 39.4871 19.7006 39.9912 19.617V17.4202C39.7359 17.4598 39.4717 17.4818 39.2054 17.4818C37.002 17.4818 35.2124 16.0973 35.2124 14.3825C35.2124 12.6678 37.002 11.2877 39.2054 11.2877V11.2855ZM15.0714 13.6187C15.3377 12.3156 16.2402 11.466 17.6292 11.466C19.0181 11.466 19.9228 12.3354 20.1209 13.6187H15.0714Z" fill="white"/>
<path d="M4.24612 14.4023C3.44489 15.3334 1.86882 17.5082 1.23708 18.5516C0.616336 18.1906 0.29276 17.9573 0 17.7327C0.959725 16.6828 2.42353 15.1397 3.62538 14.2086C3.62538 14.2086 4.17348 14.3781 4.24612 14.4023Z" fill="#F6BE00"/>
</svg>
