<svg width="972" height="280" viewBox="0 0 972 280" fill="none" xmlns="http://www.w3.org/2000/svg">
<path d="M16.5137 10.2524C24.9454 10.2524 33.1044 11.2508 40.9404 13.2759L42.3945 13.6606C49.1529 15.4949 55.5172 17.8423 61.499 20.7192L62.7754 21.3433L62.7773 21.3452L64.0352 21.9839C69.8751 24.9985 75.2952 28.4725 80.2627 32.3784L81.3203 33.2222L81.3242 33.2251L82.3613 34.0786C87.1668 38.0742 91.4598 42.2675 95.249 46.6899L96.0537 47.6411L96.0596 47.6489L96.0654 47.6558L99.168 51.4341C102.584 55.5833 106.937 60.8446 112.211 67.2104L117.117 73.147C118.885 75.291 120.785 77.6002 122.818 80.0737L136.622 96.8813L136.624 96.8843L144.847 106.911C152.728 116.501 161.912 127.621 172.395 140.279V10.2524H227.969V231.075H180.875L180.274 230.347L70.0879 96.7114V231.075H14.5137V10.2524H16.5137Z" fill="#333333" stroke="#333333" stroke-width="4"/>
<path d="M321.269 57.7607C337.21 57.7608 350.977 60.2723 362.463 65.375H362.464C373.899 70.4452 383.317 77.2986 390.673 85.9521C397.992 94.5615 403.411 104.419 406.907 115.526L407.228 116.563C410.495 127.299 412.136 138.405 412.136 149.837V150.468C412.136 152.791 412.07 154.786 411.981 156.471V156.484L411.98 156.497C411.87 158.174 411.715 160.065 411.518 162.147L411.346 163.959H282.586C285.335 172.911 290.208 179.922 297.139 185.052L297.858 185.573C305.078 190.706 313.504 193.554 323.182 194.083L324.154 194.128L324.196 194.13L324.238 194.133C326.531 194.318 328.687 194.373 330.735 194.313L331.606 194.28C333.935 194.173 336.479 193.982 339.238 193.661L339.251 193.659L340.274 193.537C342.696 193.224 345.377 192.714 348.305 191.987L348.317 191.984L350.968 191.328C353.728 190.632 356.813 189.815 360.237 188.886L362.761 188.201V227.938L362.549 228.36L362.528 228.403L362.116 229.227L361.223 229.449C351.852 231.786 344.064 233.276 337.889 233.895L336.676 234.006C330.44 234.531 325.199 234.797 320.964 234.797C307.517 234.797 295.24 232.764 284.175 228.688L283.108 228.288C271.803 223.959 262.038 217.927 253.863 210.157L253.101 209.426C245.54 202.065 239.617 193.336 235.33 183.295L234.907 182.286C230.443 171.465 228.224 159.602 228.224 146.725C228.224 133.821 230.495 122.893 235.064 112.086L235.496 111.078C240.006 100.704 246.235 91.5927 254.139 83.7988C262.309 75.7218 272.115 69.3801 283.528 64.7412L284.605 64.3115C295.769 59.9425 307.992 57.7607 321.269 57.7607ZM321.079 99.9834C310.465 100.132 301.961 103.162 295.4 108.943C289.161 114.458 284.823 121.809 282.466 131.079H360.22C358.39 121.991 354.411 114.693 348.363 109.084V109.083C341.868 103.08 333.12 99.9981 321.922 99.998H321.093L321.079 99.9834Z" fill="#333333" stroke="#333333" stroke-width="4"/>
<path d="M443.5 61.1992L444.098 62.0137L477.921 107.982L512.36 62L512.959 61.1992H574.331L571.761 64.4414L508.735 143.966L574.576 227.84L577.115 231.075H514.173L513.573 230.267L476.95 180.876L440.328 230.267L439.728 231.075H378.359L380.918 227.835L446.452 144.892L383.417 64.4326L380.884 61.1992H443.5Z" fill="#333333" stroke="#333333" stroke-width="4"/>
<path d="M641.251 60.8467V157.493C641.251 161.682 641.754 165.947 642.744 170.269L642.938 171.055C643.947 174.961 645.586 178.507 647.868 181.708C650.273 185.081 653.413 187.845 657.304 189.995L657.662 190.187C661.39 192.141 666.08 193.164 671.885 193.164C677.876 193.164 682.754 192.075 686.634 189.986C690.631 187.835 693.808 185.073 696.207 181.708C698.651 178.279 700.42 174.458 701.492 170.232L701.494 170.224L701.696 169.418C702.673 165.39 703.15 161.41 703.15 157.493V60.8467H760.144V62.8467H762.1V153.858C762.1 165.662 760.304 176.703 756.697 186.986L756.698 186.987C753.209 196.997 747.843 205.739 740.631 213.255L739.928 213.979C732.365 221.651 722.881 227.651 711.569 231.983C700.211 236.333 686.961 238.492 671.863 238.492C656.765 238.492 643.516 236.333 632.157 231.983V231.982C621.196 227.806 611.975 222.045 604.516 214.695L603.797 213.977C596.488 206.541 591.005 197.881 587.375 187.955L587.03 186.991C583.423 176.706 581.627 165.664 581.627 153.858V60.8467H641.251Z" fill="#333333" stroke="#333333" stroke-width="4"/>
<path d="M810.709 156.279C794.73 174.842 763.293 218.215 750.688 238.999C738.3 231.795 731.835 227.138 726 222.677C745.136 201.741 774.353 170.947 798.322 152.405C798.322 152.405 809.251 155.778 810.709 156.279Z" fill="#F6BE00"/>
<path d="M971.747 189.38C971.747 178.977 969.744 169.293 966.326 161.11L966.021 160.261C965.934 160.087 965.934 160.131 965.825 159.848C960.252 149.488 953.351 143.438 944.577 137.693C928.162 126.376 905.042 119.151 877.35 113.145C825.688 102.067 818.351 96.9532 818.351 85.1577C818.351 73.3623 831.522 64.2219 852.096 64.6572C868.075 65.0271 877.633 68.8356 882.03 70.4025C894.766 54.581 908.438 39.3906 922.981 25.0054C901.384 17.1708 877.785 13.0576 852.313 13.0576C790.855 13.0576 747.967 43.7649 747.967 89.9455C747.967 125.419 766.537 141.523 798.975 152.535C800.695 153.101 805.811 154.69 808.685 155.626C819.919 158.868 832.437 161.741 846.174 164.679C896.834 175.539 901.08 184.679 901.08 194.755C901.08 206.551 886.972 213.667 863.373 213.667C836.377 213.667 811.428 205.68 785.303 188.77C771.914 206.899 758.112 226.833 750.688 238.977C783.584 256.888 821.922 267.9 862.154 267.9C907.349 267.9 941.094 254.472 958.38 230.99C966.5 221.284 971.725 206.246 971.725 189.336L971.747 189.38Z" fill="#004C99"/>
<path d="M934.389 30.7291L923.155 25.1143C906.13 41.7628 892.306 57.3667 882.03 70.4026L890.804 74.2764C906.783 59.4995 923.024 46.0065 939.483 33.6017L934.389 30.7073V30.7291Z" fill="#F6BE00"/>
</svg>
