<svg width="962" height="280" viewBox="0 0 962 280" fill="none" xmlns="http://www.w3.org/2000/svg">
<path d="M189.818 229.075L76.0883 91.1425V229.075H24.5137V12.2524C32.7865 12.2524 40.7763 13.2318 48.4396 15.2122C56.1028 17.1926 63.2436 19.8259 69.8836 23.1338C76.5019 26.4418 82.5759 30.3373 88.0621 34.7769C93.5483 39.2383 98.3596 43.9391 102.518 48.9227C106.241 53.4711 111.64 60 118.672 68.4875C124.68 75.7345 132.801 85.6365 143.076 98.1501C153.33 110.686 166.436 126.572 182.394 145.832V12.2524H233.969V229.075H189.84H189.818Z" fill="#333333"/>
<path d="M360.739 227.508C350.79 229.989 342.713 231.491 336.508 232.013C330.304 232.535 325.122 232.797 320.964 232.797C307.292 232.797 294.905 230.664 283.823 226.42C272.742 222.176 263.207 216.279 255.239 208.705C247.271 201.154 241.109 192.078 236.755 181.524C232.401 170.969 230.224 159.369 230.224 146.725C230.224 134.081 232.445 123.417 236.908 112.862C241.349 102.307 247.575 93.0796 255.543 85.2232C263.511 77.3451 273.09 71.1427 284.281 66.5943C295.471 62.0458 307.793 59.7607 321.269 59.7607C337.009 59.7607 350.485 62.2417 361.653 67.2036C372.843 72.1655 382.009 78.8467 389.15 87.2471C396.29 95.6476 401.581 105.267 404.999 116.126C408.417 126.986 410.136 138.237 410.136 149.837V150.468C410.136 152.753 410.071 154.712 409.984 156.366C409.875 158.02 409.723 159.891 409.527 161.959H279.948C282.626 172.514 287.982 180.762 295.95 186.66C303.918 192.557 313.301 195.713 324.077 196.126C326.777 196.344 329.302 196.388 331.697 196.279C334.07 196.17 336.661 195.974 339.469 195.648C342.256 195.343 345.369 194.777 348.787 193.928C352.205 193.101 356.189 192.057 360.761 190.816V227.465L360.739 227.508ZM321.9 97.9762C310.514 97.9762 301.24 101.132 294.077 107.443C286.937 113.754 282.212 122.307 279.948 133.08H362.611C360.957 122.525 356.646 114.037 349.723 107.617C342.778 101.197 333.504 97.998 321.922 97.998L321.9 97.9762Z" fill="#333333"/>
<path d="M515.18 229.075L476.95 177.519L438.721 229.075H382.488L448.997 144.897L384.991 63.1992H442.488L477.908 111.338L513.961 63.1992H570.194L506.188 143.961L573.002 229.075H515.201H515.18Z" fill="#333333"/>
<path d="M568.627 58.8467H623.62V153.493C623.62 157.846 624.186 162.263 625.339 166.725C626.471 171.186 628.344 175.234 630.934 178.868C633.525 182.503 636.943 185.463 641.188 187.748C645.434 190.033 650.659 191.164 656.885 191.164C663.111 191.164 668.271 190.033 672.429 187.748C676.566 185.463 679.94 182.503 682.531 178.868C685.122 175.234 686.928 171.186 687.973 166.725C688.997 162.263 689.519 157.846 689.519 153.493V58.8467H745.143V149.859C745.143 161.458 743.38 172.274 739.853 182.329C736.326 192.383 730.883 201.11 723.547 208.575C716.188 216.039 706.979 221.893 695.898 226.115C684.817 230.359 671.82 232.492 656.907 232.492C641.994 232.492 628.997 230.359 617.916 226.115C606.834 221.872 597.604 216.018 590.267 208.575C582.908 201.11 577.466 192.383 573.961 182.329C570.434 172.274 568.67 161.458 568.67 149.859V58.8467H568.627Z" fill="#333333"/>
<path d="M800.709 156.279C784.73 174.842 753.293 218.215 740.688 238.999C728.3 231.795 721.835 227.138 716 222.677C735.136 201.741 764.353 170.947 788.322 152.405C788.322 152.405 799.251 155.778 800.709 156.279Z" fill="#F5BF01"/>
<path d="M961.747 189.38C961.747 178.977 959.744 169.293 956.326 161.11L956.021 160.261C955.934 160.087 955.934 160.131 955.825 159.848C950.252 149.489 943.351 143.438 934.577 137.693C918.162 126.376 895.042 119.151 867.35 113.145C815.688 102.067 808.351 96.9532 808.351 85.1577C808.351 73.3623 821.522 64.2219 842.096 64.6572C858.075 65.0271 867.633 68.8356 872.03 70.4026C884.766 54.581 898.438 39.3906 912.981 25.0054C891.384 17.1708 867.785 13.0576 842.313 13.0576C780.855 13.0576 737.967 43.7649 737.967 89.9455C737.967 125.419 756.537 141.523 788.975 152.535C790.695 153.101 795.811 154.69 798.685 155.626C809.919 158.868 822.437 161.741 836.174 164.679C886.834 175.539 891.08 184.679 891.08 194.755C891.08 206.551 876.972 213.667 853.373 213.667C826.377 213.667 801.428 205.68 775.303 188.77C761.914 206.899 748.112 226.833 740.688 238.977C773.584 256.888 811.922 267.9 852.154 267.9C897.349 267.9 931.094 254.472 948.38 230.99C956.5 221.284 961.725 206.246 961.725 189.336L961.747 189.38Z" fill="#004C99"/>
<path d="M924.389 30.7291L913.155 25.1143C896.13 41.7628 882.306 57.3667 872.03 70.4026L880.804 74.2764C896.783 59.4995 913.024 46.0065 929.483 33.6017L924.389 30.7073V30.7291Z" fill="#F5BF01"/>
</svg>
