<svg width="16" height="16" viewBox="0 0 16 16" fill="none" xmlns="http://www.w3.org/2000/svg">
<mask id="mask0_262_55" style="mask-type:alpha" maskUnits="userSpaceOnUse" x="0" y="0" width="16" height="16">
<rect width="16" height="16" fill="#D9D9D9"/>
</mask>
<g mask="url(#mask0_262_55)">
<path d="M7.39992 12.6666H8.56659V11.8333C9.12214 11.7333 9.59992 11.5166 9.99992 11.1833C10.3999 10.85 10.5999 10.3555 10.5999 9.69998C10.5999 9.23331 10.4666 8.80553 10.1999 8.41665C9.93325 8.02776 9.39992 7.68887 8.59992 7.39998C7.93325 7.17776 7.47214 6.98331 7.21658 6.81665C6.96103 6.64998 6.83325 6.4222 6.83325 6.13331C6.83325 5.84442 6.93603 5.61665 7.14159 5.44998C7.34714 5.28331 7.64436 5.19998 8.03325 5.19998C8.38881 5.19998 8.66658 5.28609 8.86658 5.45831C9.06659 5.63054 9.21103 5.84442 9.29992 6.09998L10.3666 5.66665C10.2444 5.27776 10.0194 4.93887 9.69158 4.64998C9.36381 4.36109 8.99992 4.19998 8.59992 4.16665V3.33331H7.43325V4.16665C6.8777 4.28887 6.44436 4.53331 6.13325 4.89998C5.82214 5.26665 5.66658 5.67776 5.66658 6.13331C5.66658 6.65554 5.81936 7.07776 6.12492 7.39998C6.43047 7.7222 6.91103 7.99998 7.56659 8.23331C8.26659 8.48887 8.7527 8.71665 9.02492 8.91665C9.29714 9.11665 9.43325 9.37776 9.43325 9.69998C9.43325 10.0666 9.3027 10.3361 9.04158 10.5083C8.78047 10.6805 8.46659 10.7666 8.09992 10.7666C7.73325 10.7666 7.40825 10.6528 7.12492 10.425C6.84159 10.1972 6.63325 9.85553 6.49992 9.39998L5.39992 9.83331C5.55547 10.3666 5.79714 10.7972 6.12492 11.125C6.4527 11.4528 6.8777 11.6778 7.39992 11.8V12.6666ZM7.99992 14.6666C7.0777 14.6666 6.21103 14.4916 5.39992 14.1416C4.58881 13.7916 3.88325 13.3166 3.28325 12.7166C2.68325 12.1166 2.20825 11.4111 1.85825 10.6C1.50825 9.78887 1.33325 8.9222 1.33325 7.99998C1.33325 7.07776 1.50825 6.21109 1.85825 5.39998C2.20825 4.58887 2.68325 3.88331 3.28325 3.28331C3.88325 2.68331 4.58881 2.20831 5.39992 1.85831C6.21103 1.50831 7.0777 1.33331 7.99992 1.33331C8.92214 1.33331 9.78881 1.50831 10.5999 1.85831C11.411 2.20831 12.1166 2.68331 12.7166 3.28331C13.3166 3.88331 13.7916 4.58887 14.1416 5.39998C14.4916 6.21109 14.6666 7.07776 14.6666 7.99998C14.6666 8.9222 14.4916 9.78887 14.1416 10.6C13.7916 11.4111 13.3166 12.1166 12.7166 12.7166C12.1166 13.3166 11.411 13.7916 10.5999 14.1416C9.78881 14.4916 8.92214 14.6666 7.99992 14.6666ZM7.99992 13.3333C9.48881 13.3333 10.7499 12.8166 11.7833 11.7833C12.8166 10.75 13.3333 9.48887 13.3333 7.99998C13.3333 6.51109 12.8166 5.24998 11.7833 4.21665C10.7499 3.18331 9.48881 2.66665 7.99992 2.66665C6.51103 2.66665 5.24992 3.18331 4.21659 4.21665C3.18325 5.24998 2.66659 6.51109 2.66659 7.99998C2.66659 9.48887 3.18325 10.75 4.21659 11.7833C5.24992 12.8166 6.51103 13.3333 7.99992 13.3333Z" fill="#666666"/>
</g>
</svg>
