<svg width="678" height="339" viewBox="0 0 678 339" fill="none" xmlns="http://www.w3.org/2000/svg">
<path d="M132.447 170.954C177.292 114.032 301.016 0 469.696 0C588.089 0 677.704 67.4349 677.704 67.4349C611.052 35.0408 347.426 -17.7441 139.902 174.235L132.447 170.917V170.954Z" fill="#F6BE00"/>
<path d="M663.949 191.121C668.459 191.121 672.933 191.494 677.257 192.165V155.521C669.205 154.403 660.631 153.881 651.349 153.881C586.896 153.881 538.212 192.426 538.212 244.055C538.212 247.597 538.473 251.026 538.883 254.381C529.414 238.501 508.465 230.375 478.568 224.261C440.582 216.507 435.326 213.152 436.109 204.765C436.855 196.825 449.603 189.481 468.615 189.481C480.842 189.481 497.132 192.351 511.633 199.136V160.703C497.654 156.416 482.37 153.546 465.856 153.546C417.88 153.546 385.71 176.583 383.138 208.12V208.716C371.544 177.627 344.481 154.291 297.847 154.291C241.819 154.291 203.535 195.296 203.535 245.024C203.535 246.292 203.535 247.522 203.609 248.752C193.023 225.901 165.549 215.352 128.458 207.262C84.5823 197.868 78.357 193.507 78.357 183.479C78.357 173.452 89.5402 165.698 107.023 166.071C120.592 166.369 128.719 169.612 132.447 170.954C143.257 157.497 154.85 144.636 167.227 132.409C148.886 125.737 128.868 122.27 107.247 122.27C55.0586 122.27 18.6758 148.364 18.6758 187.58C18.6758 217.7 34.4441 231.381 61.9922 240.738C63.446 241.222 67.8075 242.564 70.2305 243.347C79.7735 246.106 90.3977 248.529 102.066 251.026C145.084 260.234 148.662 268.025 148.662 276.561C148.662 286.589 136.696 292.628 116.641 292.628C93.7153 292.628 72.5417 285.843 50.3616 271.492C38.992 286.887 27.2869 303.811 20.987 314.137C48.9078 329.346 81.4511 338.703 115.635 338.703C171.29 338.703 206.48 314.771 208.306 275.48C220.086 311.229 253.039 334.453 297.549 334.453C306.085 334.453 318.387 334.192 338.666 329.122V290.988C319.841 296.43 311.789 297.027 300.717 296.43C278.537 295.312 260.457 282.824 255.276 260.942H389.251C389.549 256.469 389.922 253.598 389.922 248.864V248.193C389.922 243.496 389.661 238.799 389.139 234.214C399.353 248.268 421.645 253.934 452.25 260.196C489.565 267.764 491.652 273.467 491.652 282.19C491.652 289.944 481.699 298.816 459.631 298.07C437.041 297.288 410.499 290.54 390.034 279.022V323.084C411.431 332.627 438.495 338.554 459.482 338.554C509.956 338.554 544.512 309.03 544.512 277.083V274.996C553.421 295.871 570.979 311.788 590.885 321.481C610.791 331.135 632.077 334.192 649.522 334.304C659.774 334.379 668.72 333.633 677.257 332.217V295.014C672.933 295.685 668.459 296.057 663.949 296.057C626.634 296.057 596.328 272.61 596.328 243.571C596.328 214.532 626.634 191.159 663.949 191.159V191.121ZM255.239 230.635C259.749 208.567 275.033 194.178 298.555 194.178C322.077 194.178 337.398 208.903 340.753 230.635H255.239Z" fill="white"/>
<path d="M71.9083 243.906C58.3393 259.674 31.6486 296.504 20.9499 314.174C10.4377 308.06 4.9579 304.109 0 300.307C16.253 282.525 41.0425 256.394 61.396 240.625C61.396 240.625 70.6781 243.496 71.9083 243.906Z" fill="#F6BE00"/>
</svg>
